<svg width="311" height="484" viewBox="0 0 311 484" fill="none" xmlns="http://www.w3.org/2000/svg">
<path d="M118.547 344.912C104.995 328.722 94.7648 310.021 88.4403 289.878C82.1157 269.734 79.8207 248.542 81.6863 227.511C83.5519 206.48 89.5415 186.023 99.3131 167.307C109.085 148.591 122.447 131.983 138.637 118.432C154.827 104.88 173.528 94.6496 193.672 88.325C213.815 82.0005 235.008 79.7055 256.038 81.5711C277.069 83.4366 297.526 89.4262 316.242 99.1979C334.958 108.97 351.566 122.332 365.118 138.522L241.832 241.717L118.547 344.912Z" fill="#F7CD77"/>
<path d="M365.118 138.522C378.669 154.712 388.899 173.413 395.224 193.557C401.549 213.7 403.844 234.892 401.978 255.923C400.112 276.954 394.123 297.411 384.351 316.127C374.58 334.843 361.217 351.451 345.027 365.003C328.837 378.554 310.136 388.785 289.993 395.109C269.849 401.434 248.657 403.729 227.626 401.863C206.595 399.997 186.138 394.008 167.422 384.236C148.706 374.465 132.098 361.102 118.547 344.912L241.832 241.717L365.118 138.522Z" fill="#F2AB87"/>
</svg>
