<svg width="28" height="28" viewBox="0 0 28 28" fill="none" xmlns="http://www.w3.org/2000/svg">
<path fill-rule="evenodd" clip-rule="evenodd" d="M21 14C21 14.7732 20.3732 15.4 19.6 15.4H15.4V19.6C15.4 20.3732 14.7732 21 14 21C13.2269 21 12.6 20.3732 12.6 19.6V15.4H8.40005C7.62685 15.4 7.00005 14.7732 7.00005 14C7.00005 13.2269 7.62685 12.6 8.40005 12.6H12.6V8.40005C12.6 7.62685 13.2269 7.00005 14 7.00005C14.7732 7.00005 15.4 7.62685 15.4 8.40005V12.6H19.6C20.3732 12.6 21 13.2269 21 14ZM14 2.80005C7.81485 2.80005 2.80005 7.81485 2.80005 14C2.80005 20.1852 7.81485 25.2 14 25.2C20.1852 25.2 25.2 20.1852 25.2 14C25.2 7.81485 20.1852 2.80005 14 2.80005Z" fill="#377E62"/>
</svg>
