<svg width="20" height="20" viewBox="0 0 20 20" fill="none" xmlns="http://www.w3.org/2000/svg">
<path fill-rule="evenodd" clip-rule="evenodd" d="M2.293 10.707L7.293 15.707C7.684 16.098 8.316 16.098 8.707 15.707C9.098 15.316 9.098 14.684 8.707 14.293L5.414 11L17 11C17.553 11 18 10.552 18 9.99999C18 9.44799 17.553 8.99999 17 8.99999L5.414 9L8.707 5.70699C9.098 5.316 9.098 4.684 8.707 4.293C8.512 4.098 8.256 4 8 4C7.744 4 7.488 4.098 7.293 4.293L2.293 9.293C1.902 9.684 1.902 10.316 2.293 10.707Z" fill="white"/>
</svg>
