<svg width="20" height="20" viewBox="0 0 20 20" fill="none" xmlns="http://www.w3.org/2000/svg">
<path fill-rule="evenodd" clip-rule="evenodd" d="M10.707 17.707L15.707 12.707C16.098 12.316 16.098 11.684 15.707 11.293C15.316 10.902 14.684 10.902 14.293 11.293L11 14.586L11 3C11 2.447 10.552 2 9.99999 2C9.44799 2 8.99999 2.447 8.99999 3L8.99999 14.586L5.70699 11.293C5.31599 10.902 4.68399 10.902 4.29299 11.293C4.09799 11.488 3.99999 11.744 3.99999 12C3.99999 12.256 4.09799 12.512 4.29299 12.707L9.29299 17.707C9.68399 18.098 10.316 18.098 10.707 17.707Z" fill="white"/>
</svg>
