<svg width="34" height="34" viewBox="0 0 34 34" fill="none" xmlns="http://www.w3.org/2000/svg">
<g clip-path="url(#clip0_24_2473)">
<path fill-rule="evenodd" clip-rule="evenodd" d="M24.8032 8.26776C29.362 12.8266 29.362 20.2444 24.8032 24.8033C20.2443 29.3621 12.8265 29.3621 8.26764 24.8033C3.7088 20.2444 3.7088 12.8266 8.26764 8.26776C12.8265 3.70892 20.2443 3.70892 24.8032 8.26776ZM18.6736 16.0512V18.1892C18.6736 18.3427 18.7038 18.4947 18.7626 18.6366C18.8213 18.7784 18.9074 18.9073 19.016 19.0159C19.1245 19.1244 19.2534 19.2105 19.3952 19.2693C19.5371 19.328 19.6891 19.3583 19.8426 19.3583C19.9962 19.3583 20.1482 19.328 20.29 19.2693C20.4318 19.2105 20.5607 19.1244 20.6693 19.0159C20.7778 18.9073 20.8639 18.7784 20.9227 18.6366C20.9815 18.4947 21.0117 18.3427 21.0117 18.1892L21.0117 13.2285C21.0121 13.0749 20.9822 12.9227 20.9236 12.7806C20.865 12.6386 20.7789 12.5096 20.6703 12.4009C20.5616 12.2923 20.4326 12.2062 20.2905 12.1476C20.1485 12.089 19.9963 12.059 19.8426 12.0595L14.882 12.0595C14.7285 12.0595 14.5764 12.0897 14.4346 12.1485C14.2928 12.2072 14.1639 12.2933 14.0553 12.4019C13.9468 12.5104 13.8607 12.6393 13.8019 12.7812C13.7432 12.923 13.7129 13.075 13.7129 13.2285C13.7129 13.3821 13.7432 13.5341 13.8019 13.6759C13.8607 13.8178 13.9468 13.9466 14.0553 14.0552C14.1639 14.1638 14.2928 14.2499 14.4346 14.3086C14.5764 14.3674 14.7285 14.3976 14.882 14.3976L17.02 14.3976L12.4016 19.016C12.1824 19.2352 12.0592 19.5326 12.0592 19.8428C12.0592 20.1529 12.1824 20.4503 12.4016 20.6695C12.6209 20.8888 12.9183 21.012 13.2284 21.012C13.5385 21.012 13.8359 20.8888 14.0552 20.6695L18.6736 16.0512Z" fill="#377E62"/>
</g>
<defs>
<clipPath id="clip0_24_2473">
<rect width="23.3848" height="23.3848" fill="white" transform="translate(16.5354) rotate(45)"/>
</clipPath>
</defs>
</svg>
