<svg width="20" height="21" viewBox="0 0 20 21" fill="none" xmlns="http://www.w3.org/2000/svg">
<path d="M11.1111 1.10526C11.1111 0.494843 10.6136 0 10 0C9.38635 0 8.88889 0.494843 8.88889 1.10526V9.48956L7.45234 8.06057C7.01843 7.62893 6.31491 7.62893 5.88099 8.06057C5.44708 8.4922 5.44708 9.19201 5.88099 9.62364L9.21432 12.9394C9.42269 13.1467 9.70531 13.2632 10 13.2632C10.2947 13.2632 10.5773 13.1467 10.7857 12.9394L14.119 9.62364C14.5529 9.19201 14.5529 8.4922 14.119 8.06057C13.6851 7.62893 12.9816 7.62893 12.5476 8.06057L11.1111 9.48955V1.10526Z" fill="#5C5F62"/>
<path d="M2.22222 15.4737V3.31579H6.66667V1.10526H1.66667C0.746192 1.10526 0 1.84753 0 2.76316V19.3421C0 20.2577 0.746192 21 1.66667 21H18.3333C19.2538 21 20 20.2577 20 19.3421V2.76316C20 1.84753 19.2538 1.10526 18.3333 1.10526H13.3333C13.3333 1.84211 13.3333 2.57895 13.3333 3.31579H17.7778V15.4737H13.8889C13.028 15.4737 12.347 16.2057 11.7491 16.8485C11.7077 16.893 11.6667 16.937 11.626 16.9804C11.2204 17.4134 10.642 17.6842 10 17.6842C9.35803 17.6842 8.77964 17.4134 8.37397 16.9804C8.33333 16.937 8.29234 16.893 8.25094 16.8485C7.65298 16.2057 6.97199 15.4737 6.11111 15.4737H2.22222Z" fill="#5C5F62"/>
</svg>
