<svg width="20" height="20" viewBox="0 0 20 20" fill="none" xmlns="http://www.w3.org/2000/svg">
<path fill-rule="evenodd" clip-rule="evenodd" d="M10.3254 0.325437C10.5338 0.117063 10.8164 0 11.1111 0H18.8889C19.5025 0 20 0.497461 20 1.11111V8.88889C20 9.18357 19.8829 9.46619 19.6746 9.67456L9.67456 19.6746C9.24065 20.1085 8.53713 20.1085 8.10322 19.6746L0.325437 11.8968C-0.108479 11.4629 -0.108479 10.7594 0.325437 10.3254L10.3254 0.325437ZM16.1111 5.55556C17.0316 5.55556 17.7778 4.80936 17.7778 3.88889C17.7778 2.96841 17.0316 2.22222 16.1111 2.22222C15.1906 2.22222 14.4444 2.96841 14.4444 3.88889C14.4444 4.80936 15.1906 5.55556 16.1111 5.55556Z" fill="#5C5F62"/>
</svg>
