<svg width="20" height="20" viewBox="0 0 20 20" fill="none" xmlns="http://www.w3.org/2000/svg">
<path d="M0.692631 1.39267L0.0157074 5.37288C-0.0994755 6.05013 0.433466 6.66665 1.13409 6.66665H2.14601C2.7902 6.66665 3.37909 6.30998 3.66718 5.74534L4.33093 4.44443L4.99468 5.74534C5.28276 6.30998 5.87166 6.66665 6.51585 6.66665H7.81508C8.45927 6.66665 9.04817 6.30998 9.33625 5.74534L10 4.44443L10.6637 5.74534C10.9518 6.30998 11.5407 6.66665 12.1849 6.66665H13.4842C14.1283 6.66665 14.7172 6.30998 15.0053 5.74534L15.6691 4.44443L16.3328 5.74534C16.6209 6.30998 17.2098 6.66665 17.854 6.66665H18.8659C19.5665 6.66665 20.0995 6.05013 19.9843 5.37287L19.3074 1.39267C19.1707 0.589022 18.4612 0 17.6298 0H2.37021C1.53883 0 0.829309 0.589022 0.692631 1.39267Z" fill="#5C5F62"/>
<path d="M19.0705 8.88889H0.929486V18.3333C0.929486 19.2538 1.69092 20 2.63021 20H6.59856V12.2222H13.4014V20H17.3698C18.3091 20 19.0705 19.2538 19.0705 18.3333V8.88889Z" fill="#5C5F62"/>
</svg>
