<svg width="390" height="844" viewBox="0 0 390 844" fill="none" xmlns="http://www.w3.org/2000/svg">
<g clip-path="url(#clip0_33_2264)">
<rect width="390" height="844" fill="white"/>
<rect width="390" height="844" fill="#204A3F"/>
<path d="M215.981 18.9518C231.987 5.18253 250.547 -5.29934 270.604 -11.8954C290.66 -18.4915 311.82 -21.0725 332.874 -19.4912C353.927 -17.9099 374.464 -12.1972 393.31 -2.67926C412.156 6.83867 428.943 19.9754 442.712 35.981C456.482 51.9865 466.963 70.5474 473.559 90.6038C480.156 110.66 482.737 131.82 481.155 152.873C479.574 173.927 473.861 194.464 464.343 213.31C454.825 232.156 441.689 248.943 425.683 262.712L320.832 140.832L215.981 18.9518Z" fill="#F7CD77"/>
<path d="M425.683 262.712C409.677 276.482 391.117 286.963 371.06 293.559C351.004 300.156 329.844 302.737 308.791 301.155C287.737 299.574 267.2 293.861 248.354 284.343C229.508 274.825 212.721 261.689 198.952 245.683C185.183 229.678 174.701 211.117 168.105 191.06C161.509 171.004 158.927 149.845 160.509 128.791C162.09 107.737 167.803 87.2004 177.321 68.3542C186.839 49.508 199.975 32.7211 215.981 18.9519L320.832 140.832L425.683 262.712Z" fill="#F2AB87"/>
</g>
<defs>
<clipPath id="clip0_33_2264">
<rect width="390" height="844" fill="white"/>
</clipPath>
</defs>
</svg>
