<svg width="390" height="1470" viewBox="0 0 390 1470" fill="none" xmlns="http://www.w3.org/2000/svg">
<g clip-path="url(#clip0_33_2263)">
<rect width="390" height="1470" fill="#204A3F"/>
<path d="M197.547 344.912C183.995 328.722 173.765 310.021 167.44 289.878C161.116 269.734 158.821 248.542 160.686 227.511C162.552 206.48 168.541 186.023 178.313 167.307C188.085 148.591 201.447 131.983 217.637 118.432C233.827 104.88 252.528 94.6496 272.672 88.325C292.815 82.0005 314.007 79.7055 335.038 81.5711C356.069 83.4366 376.526 89.4262 395.242 99.1979C413.958 108.97 430.566 122.332 444.118 138.522L320.832 241.717L197.547 344.912Z" fill="#F7CD77"/>
<path d="M444.118 138.522C457.669 154.712 467.899 173.413 474.224 193.557C480.549 213.7 482.844 234.892 480.978 255.923C479.112 276.954 473.123 297.411 463.351 316.127C453.58 334.843 440.217 351.451 424.027 365.003C407.837 378.554 389.136 388.785 368.993 395.109C348.849 401.434 327.657 403.729 306.626 401.863C285.595 399.997 265.138 394.008 246.422 384.236C227.706 374.465 211.098 361.102 197.547 344.912L320.832 241.717L444.118 138.522Z" fill="#F2AB87"/>
<circle cx="55.5" cy="1270.5" r="110.5" fill="#F7CD77"/>
</g>
<defs>
<clipPath id="clip0_33_2263">
<rect width="390" height="1470" fill="white"/>
</clipPath>
</defs>
</svg>
